<?xml version="1.0" standalone="no"?>
<!DOCTYPE svg PUBLIC "-//W3C//DTD SVG 20010904//EN"
 "http://www.w3.org/TR/2001/REC-SVG-20010904/DTD/svg10.dtd">
<svg width="33" height="33" viewBox="0 0 33 33" fill="none" xmlns="http://www.w3.org/2000/svg">
<path d="M28.4645 32.7214L24.4527 29.2609C21.9451 30.9942 19.0126 32.1208 15.9194 32.539C12.8263 32.9572 9.66976 32.654 6.73422 31.6566C4.94679 31.0215 3.36711 29.9668 2.14936 28.5954C1.0859 27.3456 0.513109 25.7963 0.52557 24.2033C0.488826 22.3882 1.09268 20.6119 2.24489 19.1456C3.78502 17.3897 5.70496 15.9538 7.88042 14.9309C6.8241 13.972 5.9376 12.864 5.2537 11.6479C4.72241 10.6237 4.44497 9.50184 4.44179 8.36489C4.41407 6.94174 4.86482 5.54599 5.73128 4.37203C6.64215 3.18046 7.90186 2.25662 9.36095 1.71012C11.0985 1.03281 12.9693 0.700359 14.8532 0.734086C17.3503 0.617993 19.8138 1.30766 21.826 2.68615C22.679 3.29295 23.3628 4.08109 23.8199 4.98434C24.277 5.88758 24.494 6.87955 24.4527 7.87688C24.4717 9.42289 23.9149 10.9275 22.8767 12.1359C21.5057 13.6393 19.8146 14.8629 17.9098 15.7295L24.0229 21.009C24.7972 19.4689 25.3588 17.8441 25.6945 16.1732L31.6643 17.9034C31.1333 20.4127 30.0962 22.8061 28.6078 24.9575L32.524 28.3292L28.4645 32.7214ZM14.8532 5.43679C13.8867 5.39121 12.9356 5.6752 12.1787 6.23537C11.8682 6.48969 11.6217 6.80434 11.4566 7.15701C11.2916 7.50968 11.212 7.89175 11.2236 8.27617C11.2245 8.90072 11.406 9.51357 11.7489 10.0508C12.342 10.8457 13.031 11.5751 13.8025 12.2247C15.0403 11.675 16.1831 10.9573 17.1934 10.0951C17.7875 9.53937 18.1294 8.79301 18.1486 8.00997C18.1623 7.65969 18.0923 7.31094 17.9437 6.98877C17.795 6.66659 17.5714 6.37899 17.2889 6.14663C16.6001 5.6373 15.7318 5.38428 14.8532 5.43679ZM13.8025 27.3088C16.0427 27.3333 18.2335 26.6964 20.0589 25.4898L11.9877 18.4801C10.7704 19.0686 9.68455 19.8666 8.78784 20.8315C8.1592 21.5782 7.82239 22.5012 7.83267 23.449C7.82569 24.0047 7.97109 24.5528 8.25518 25.0418C8.53926 25.5308 8.95268 25.9445 9.45647 26.2441C10.7512 27.0091 12.27 27.3812 13.8025 27.3088Z" fill="#457B9D"/>
</svg>
