<svg width="148" height="31" viewBox="0 0 148 31" fill="none" xmlns="http://www.w3.org/2000/svg">
<path d="M18.81 7.86V21.3C18.81 24.26 18.04 26.46 16.5 27.9C14.96 29.34 12.71 30.06 9.75 30.06C8.19 30.06 6.71 29.87 5.31 29.49C3.91 29.11 2.75 28.56 1.83 27.84L3.69 24.48C4.37 25.04 5.23 25.48 6.27 25.8C7.31 26.14 8.35 26.31 9.39 26.31C11.01 26.31 12.2 25.94 12.96 25.2C13.74 24.48 14.13 23.38 14.13 21.9V21.21C12.91 22.55 11.21 23.22 9.03 23.22C7.55 23.22 6.19 22.9 4.95 22.26C3.73 21.6 2.76 20.68 2.04 19.5C1.32 18.32 0.96 16.96 0.96 15.42C0.96 13.88 1.32 12.52 2.04 11.34C2.76 10.16 3.73 9.25 4.95 8.61C6.19 7.95 7.55 7.62 9.03 7.62C11.37 7.62 13.15 8.39 14.37 9.93V7.86H18.81ZM9.96 19.38C11.2 19.38 12.21 19.02 12.99 18.3C13.79 17.56 14.19 16.6 14.19 15.42C14.19 14.24 13.79 13.29 12.99 12.57C12.21 11.83 11.2 11.46 9.96 11.46C8.72 11.46 7.7 11.83 6.9 12.57C6.1 13.29 5.7 14.24 5.7 15.42C5.7 16.6 6.1 17.56 6.9 18.3C7.7 19.02 8.72 19.38 9.96 19.38ZM23.1659 7.86H27.8459V24H23.1659V7.86ZM25.5059 5.61C24.6459 5.61 23.9459 5.36 23.4059 4.86C22.8659 4.36 22.5959 3.74 22.5959 3C22.5959 2.26 22.8659 1.64 23.4059 1.14C23.9459 0.639999 24.6459 0.389998 25.5059 0.389998C26.3659 0.389998 27.0659 0.629999 27.6059 1.11C28.1459 1.59 28.4159 2.19 28.4159 2.91C28.4159 3.69 28.1459 4.34 27.6059 4.86C27.0659 5.36 26.3659 5.61 25.5059 5.61ZM48.2093 7.86L41.3993 24H36.5693L29.7893 7.86H34.6193L39.0893 18.84L43.7093 7.86H48.2093ZM65.4895 15.99C65.4895 16.05 65.4595 16.47 65.3995 17.25H53.1895C53.4095 18.25 53.9295 19.04 54.7495 19.62C55.5695 20.2 56.5895 20.49 57.8095 20.49C58.6495 20.49 59.3895 20.37 60.0295 20.13C60.6895 19.87 61.2995 19.47 61.8595 18.93L64.3495 21.63C62.8295 23.37 60.6095 24.24 57.6895 24.24C55.8695 24.24 54.2595 23.89 52.8595 23.19C51.4595 22.47 50.3795 21.48 49.6195 20.22C48.8595 18.96 48.4795 17.53 48.4795 15.93C48.4795 14.35 48.8495 12.93 49.5895 11.67C50.3495 10.39 51.3795 9.4 52.6795 8.7C53.9995 7.98 55.4695 7.62 57.0895 7.62C58.6695 7.62 60.0995 7.96 61.3795 8.64C62.6595 9.32 63.6595 10.3 64.3795 11.58C65.1195 12.84 65.4895 14.31 65.4895 15.99ZM57.1195 11.16C56.0595 11.16 55.1695 11.46 54.4495 12.06C53.7295 12.66 53.2895 13.48 53.1295 14.52H61.0795C60.9195 13.5 60.4795 12.69 59.7595 12.09C59.0395 11.47 58.1595 11.16 57.1195 11.16ZM107.081 7.86V21.3C107.081 24.26 106.311 26.46 104.771 27.9C103.231 29.34 100.981 30.06 98.0215 30.06C96.4615 30.06 94.9815 29.87 93.5815 29.49C92.1815 29.11 91.0215 28.56 90.1015 27.84L91.9615 24.48C92.6415 25.04 93.5015 25.48 94.5415 25.8C95.5815 26.14 96.6215 26.31 97.6615 26.31C99.2815 26.31 100.471 25.94 101.231 25.2C102.011 24.48 102.401 23.38 102.401 21.9V21.21C101.181 22.55 99.4815 23.22 97.3015 23.22C95.8215 23.22 94.4615 22.9 93.2215 22.26C92.0015 21.6 91.0315 20.68 90.3115 19.5C89.5915 18.32 89.2315 16.96 89.2315 15.42C89.2315 13.88 89.5915 12.52 90.3115 11.34C91.0315 10.16 92.0015 9.25 93.2215 8.61C94.4615 7.95 95.8215 7.62 97.3015 7.62C99.6415 7.62 101.421 8.39 102.641 9.93V7.86H107.081ZM98.2315 19.38C99.4715 19.38 100.481 19.02 101.261 18.3C102.061 17.56 102.461 16.6 102.461 15.42C102.461 14.24 102.061 13.29 101.261 12.57C100.481 11.83 99.4715 11.46 98.2315 11.46C96.9915 11.46 95.9715 11.83 95.1715 12.57C94.3715 13.29 93.9715 14.24 93.9715 15.42C93.9715 16.6 94.3715 17.56 95.1715 18.3C95.9715 19.02 96.9915 19.38 98.2315 19.38ZM117.947 7.62C120.447 7.62 122.367 8.22 123.707 9.42C125.047 10.6 125.717 12.39 125.717 14.79V24H121.337V21.99C120.457 23.49 118.817 24.24 116.417 24.24C115.177 24.24 114.097 24.03 113.177 23.61C112.277 23.19 111.587 22.61 111.107 21.87C110.627 21.13 110.387 20.29 110.387 19.35C110.387 17.85 110.947 16.67 112.067 15.81C113.207 14.95 114.957 14.52 117.317 14.52H121.037C121.037 13.5 120.727 12.72 120.107 12.18C119.487 11.62 118.557 11.34 117.317 11.34C116.457 11.34 115.607 11.48 114.767 11.76C113.947 12.02 113.247 12.38 112.667 12.84L110.987 9.57C111.867 8.95 112.917 8.47 114.137 8.13C115.377 7.79 116.647 7.62 117.947 7.62ZM117.587 21.09C118.387 21.09 119.097 20.91 119.717 20.55C120.337 20.17 120.777 19.62 121.037 18.9V17.25H117.827C115.907 17.25 114.947 17.88 114.947 19.14C114.947 19.74 115.177 20.22 115.637 20.58C116.117 20.92 116.767 21.09 117.587 21.09ZM139.493 7.62C140.993 7.62 142.353 7.97 143.573 8.67C144.813 9.35 145.783 10.32 146.483 11.58C147.183 12.82 147.533 14.27 147.533 15.93C147.533 17.59 147.183 19.05 146.483 20.31C145.783 21.55 144.813 22.52 143.573 23.22C142.353 23.9 140.993 24.24 139.493 24.24C137.273 24.24 135.583 23.54 134.423 22.14V24H129.953V1.74H134.633V9.57C135.813 8.27 137.433 7.62 139.493 7.62ZM138.683 20.4C139.883 20.4 140.863 20 141.623 19.2C142.403 18.38 142.793 17.29 142.793 15.93C142.793 14.57 142.403 13.49 141.623 12.69C140.863 11.87 139.883 11.46 138.683 11.46C137.483 11.46 136.493 11.87 135.713 12.69C134.953 13.49 134.573 14.57 134.573 15.93C134.573 17.29 134.953 18.38 135.713 19.2C136.493 20 137.483 20.4 138.683 20.4Z" fill="#242F40"/>
<path d="M85.0753 24.36L82.5553 22.02C80.5553 23.58 78.2153 24.36 75.5353 24.36C74.0153 24.36 72.6453 24.12 71.4253 23.64C70.2053 23.14 69.2453 22.45 68.5453 21.57C67.8653 20.69 67.5253 19.7 67.5253 18.6C67.5253 17.3 67.8853 16.16 68.6053 15.18C69.3453 14.18 70.5253 13.23 72.1453 12.33C71.3853 11.55 70.8353 10.81 70.4953 10.11C70.1553 9.39 69.9853 8.65 69.9853 7.89C69.9853 6.87 70.2553 5.97 70.7953 5.19C71.3353 4.41 72.0953 3.81 73.0753 3.39C74.0753 2.95 75.2253 2.73 76.5253 2.73C78.3453 2.73 79.8053 3.17 80.9053 4.05C82.0053 4.91 82.5553 6.08 82.5553 7.56C82.5553 8.64 82.2253 9.6 81.5653 10.44C80.9253 11.28 79.8853 12.09 78.4453 12.87L82.2853 16.44C82.7453 15.48 83.0953 14.39 83.3353 13.17L87.0853 14.34C86.6853 16.2 86.0453 17.79 85.1653 19.11L87.6253 21.39L85.0753 24.36ZM76.5253 5.91C75.8253 5.91 75.2653 6.09 74.8453 6.45C74.4453 6.81 74.2453 7.27 74.2453 7.83C74.2453 8.25 74.3553 8.65 74.5753 9.03C74.7953 9.39 75.2253 9.88 75.8653 10.5C76.8853 9.96 77.5953 9.48 77.9953 9.06C78.3953 8.62 78.5953 8.15 78.5953 7.65C78.5953 7.13 78.4153 6.71 78.0553 6.39C77.6953 6.07 77.1853 5.91 76.5253 5.91ZM75.8653 20.7C77.3253 20.7 78.6353 20.29 79.7953 19.47L74.7253 14.73C73.7853 15.27 73.1153 15.8 72.7153 16.32C72.3153 16.84 72.1153 17.43 72.1153 18.09C72.1153 18.87 72.4553 19.5 73.1353 19.98C73.8153 20.46 74.7253 20.7 75.8653 20.7Z" fill="#457B9D"/>
</svg>
