<svg width="33" height="33" viewBox="0 0 33 33" fill="none" xmlns="http://www.w3.org/2000/svg">
<path d="M16.4999 0C25.612 0 33 7.38787 33 16.5001C33 25.6133 25.6121 33 16.4999 33C7.38776 33 0 25.6131 0 16.5001C0 7.38787 7.38685 0 16.4999 0Z" fill="#457B9D"/>
<path d="M24.75 17.5231V23.375H21.5082V17.915C21.5082 16.5435 21.0393 15.6074 19.8659 15.6074C18.9702 15.6074 18.4371 16.2382 18.2026 16.8485C18.1171 17.0666 18.0951 17.3703 18.0951 17.6756V23.375H14.8522C14.8522 23.375 14.8959 14.1276 14.8522 13.1695H18.0947V14.6161C18.0882 14.6269 18.0796 14.6386 18.0734 14.6491H18.0947V14.6161C18.5255 13.9217 19.2949 12.9298 21.017 12.9298C23.1506 12.9297 24.75 14.3884 24.75 17.5231ZM11.46 8.25C10.3506 8.25 9.625 9.01151 9.625 10.0129C9.625 10.9925 10.3296 11.7771 11.417 11.7771H11.4386C12.5695 11.7771 13.2728 10.9927 13.2728 10.0129C13.2515 9.01151 12.5695 8.25 11.46 8.25ZM9.8176 23.375H13.0592V13.1695H9.8176V23.375Z" fill="white"/>
</svg>
