<svg width="24" height="32" viewBox="0 0 24 32" fill="none" xmlns="http://www.w3.org/2000/svg">
<path d="M10.1739 30.0549L11.5508 31.8085L12.9277 30.0546C12.9277 30.0546 16.4689 25.5432 17.8608 23.7377C20.5127 20.297 23.1016 16.5181 23.1016 11.5016C23.1016 5.16013 17.9203 0.000350024 11.5508 0C5.18134 0.000350024 0 5.16013 0 11.5016C0 16.5181 2.58892 20.297 5.24077 23.7374C6.63198 25.5429 10.1739 30.0549 10.1739 30.0549ZM11.5508 3.50024C15.9897 3.50059 19.6014 7.09002 19.6014 11.5016C19.6014 15.051 17.9462 17.8923 15.0879 21.6007C14.2676 22.6655 12.6959 24.675 11.5508 26.1377C10.405 24.675 8.83398 22.6658 8.01367 21.6007C5.15537 17.8923 3.50024 15.051 3.50024 11.5016C3.50024 7.09002 7.11193 3.50059 11.5508 3.50024Z" fill="#457B9D"/>
</svg>
