<svg width="34" height="33" viewBox="0 0 34 33" fill="none" xmlns="http://www.w3.org/2000/svg">
<path d="M17.2499 0C26.3631 0 33.75 7.38787 33.75 16.5001C33.75 25.6133 26.3631 33 17.2499 33C8.13674 33 0.75 25.6131 0.75 16.5001C0.75 7.38787 8.13685 0 17.2499 0Z" fill="#457B9D"/>
<path d="M27.5656 11.1164C26.8448 11.4278 26.0692 11.6371 25.2557 11.732C26.0869 11.2484 26.7242 10.4842 27.0243 9.57161C26.2467 10.0202 25.3866 10.3451 24.4699 10.5193C23.7366 9.76135 22.692 9.28796 21.5349 9.28796C19.3157 9.28796 17.5152 11.0339 17.5152 13.1891C17.5152 13.4954 17.5503 13.7935 17.6193 14.0792C14.278 13.9163 11.3142 12.3621 9.33219 10.0016C8.98567 10.5781 8.78766 11.2473 8.78766 11.963C8.78766 13.316 9.49712 14.5122 10.5759 15.2105C9.91591 15.1899 9.29707 15.0155 8.75368 14.7217V14.7712C8.75368 16.6625 10.1396 18.2393 11.9794 18.5982C11.6421 18.6869 11.2874 18.7353 10.9202 18.7353C10.6614 18.7353 10.4098 18.7117 10.1643 18.6652C10.6758 20.2162 12.1608 21.3444 13.9212 21.3754C12.5445 22.4231 10.8109 23.046 8.92688 23.046C8.602 23.046 8.28233 23.0274 7.96674 22.9914C9.74769 24.0989 11.8598 24.7455 14.1315 24.7455C21.5277 24.7455 25.5723 18.7973 25.5723 13.641L25.5609 13.1357C26.3446 12.587 27.0263 11.9002 27.5656 11.1164Z" fill="white"/>
</svg>
