<svg width="27" height="34" viewBox="0 0 27 34" fill="none" xmlns="http://www.w3.org/2000/svg">
<path d="M13.0905 18.7013C5.62869 18.7013 1.0448 21.8647 0.509789 27.4061L0 33.6623H4.09407L4.57311 27.7236C4.87347 24.6093 7.91354 23.0275 13.0906 23.0275C18.268 23.0275 21.3086 24.611 21.6058 27.6917L22.0874 33.6623H26.1818L25.6691 27.3718C25.1368 21.8635 20.5528 18.7013 13.0905 18.7013Z" fill="#457B9D"/>
<path d="M20.5714 6.89522C20.5714 3.58617 17.2857 0 13.0909 0C8.89591 0 5.61038 3.58617 5.61038 6.89522C5.61038 17.6496 20.5714 17.6496 20.5714 6.89522ZM16.3248 6.89522C16.3248 12.6861 9.85664 12.6861 9.85664 6.89522C9.85673 3.58617 16.3248 3.58617 16.3248 6.89522Z" fill="#457B9D"/>
</svg>
