<svg width="37" height="37" viewBox="0 0 37 37" fill="none" xmlns="http://www.w3.org/2000/svg">
<path d="M18.5 2.89062C15.4127 2.89063 12.3948 3.8061 9.82788 5.52128C7.26094 7.23646 5.26024 9.67431 4.07881 12.5266C2.89737 15.3788 2.58825 18.5173 3.19054 21.5452C3.79283 24.5732 5.27948 27.3545 7.46249 29.5375C9.6455 31.7205 12.4268 33.2072 15.4547 33.8094C18.4827 34.4117 21.6212 34.1026 24.4734 32.9212C27.3257 31.7397 29.7635 29.7391 31.4787 27.1721C33.1939 24.6052 34.1094 21.5872 34.1094 18.5C34.1032 14.362 32.4567 10.3953 29.5307 7.46926C26.6047 4.54326 22.638 2.89674 18.5 2.89062ZM13.9675 7.24969C13.2632 9.18436 12.7859 11.1943 12.5453 13.2391C12.5162 13.4647 12.5321 13.6939 12.592 13.9133C12.6519 14.1328 12.7547 14.3382 12.8945 14.5178C13.0342 14.6973 13.2082 14.8474 13.4062 14.9593C13.6043 15.0712 13.8225 15.1429 14.0484 15.17H14.2681C14.6891 15.1657 15.0945 15.0105 15.4107 14.7325C15.7269 14.4545 15.9328 14.0723 15.9909 13.6553C16.6384 8.56781 18.0606 6.53281 18.4306 6.33625C18.8931 6.53281 20.3153 8.54469 20.9744 13.5744C21.0342 14.0344 21.2742 14.4517 21.6418 14.7347C22.0093 15.0177 22.4742 15.1431 22.9342 15.0833C23.3942 15.0235 23.8116 14.7834 24.0946 14.4159C24.3775 14.0483 24.5029 13.5834 24.4431 13.1234C24.2134 11.1091 23.7437 9.12941 23.0441 7.22656C25.0208 8.02816 26.7518 9.33597 28.0629 11.0185C29.374 12.7011 30.2192 14.6992 30.5134 16.8119C30.3664 16.7732 30.2143 16.7576 30.0625 16.7656H6.49811C6.80372 14.6653 7.65408 12.6817 8.96455 11.0122C10.275 9.34264 11.9999 8.04544 13.9675 7.24969ZM23.0325 29.7503C23.7362 27.8234 24.2134 25.8212 24.4547 23.7841C24.5145 23.3241 24.3891 22.8592 24.1061 22.4916C23.8231 22.1241 23.4058 21.884 22.9458 21.8242C22.4858 21.7644 22.0209 21.8898 21.6533 22.1728C21.2858 22.4557 21.0457 22.8731 20.9859 23.3331C20.3384 28.4091 18.9162 30.4441 18.5462 30.6406C18.0722 30.4441 16.65 28.4091 16.0025 23.3331C15.9736 23.1054 15.9002 22.8855 15.7864 22.6861C15.6726 22.4867 15.5206 22.3117 15.3392 22.1711C15.1577 22.0304 14.9503 21.9269 14.7289 21.8664C14.5074 21.8059 14.2762 21.7896 14.0484 21.8184C13.8207 21.8473 13.6008 21.9207 13.4014 22.0345C13.202 22.1483 13.027 22.3003 12.8864 22.4818C12.7457 22.6632 12.6422 22.8706 12.5817 23.0921C12.5212 23.3135 12.5049 23.5447 12.5337 23.7725C12.7762 25.8132 13.2534 27.8191 13.9559 29.7503C11.9905 28.9529 10.268 27.655 8.95963 25.9856C7.65128 24.3162 6.80265 22.3334 6.49811 20.2344H30.0625C30.2155 20.2349 30.3676 20.2115 30.5134 20.165C30.217 22.2786 29.3697 24.277 28.0566 25.9595C26.7435 27.642 25.0108 28.9493 23.0325 29.7503Z" fill="#457B9D"/>
</svg>
